<svg width="952" height="704" viewBox="0 0 952 704" fill="none" xmlns="http://www.w3.org/2000/svg">
<path d="M161.866 703.5H0.866028L114.366 506.912H275.366L161.866 703.5Z" fill="#009BDD"/>
<path d="M473.866 703.5H331.19L383.866 506.912H504.866L473.866 703.5Z" fill="#009BDD"/>
<path d="M909.366 703.5H497.366L528.866 506.912H795.866L909.366 703.5Z" fill="#009BDD"/>
<path d="M161.866 703.5H0.866028L114.366 506.912H275.366L161.866 703.5Z" stroke="black"/>
<path d="M473.866 703.5H331.19L383.866 506.912H504.866L473.866 703.5Z" stroke="black"/>
<path d="M909.366 703.5H497.366L528.866 506.912H795.866L909.366 703.5Z" stroke="black"/>
<path d="M950.866 478.5H129.366L151.866 439.529H928.366L950.866 478.5Z" fill="#009BDD"/>
<path d="M904.927 391L926.866 429H157.366L179.866 391H904.927Z" fill="#009BDD"/>
<path d="M901.866 379H183.215L204.866 341.5H880.215L901.866 379Z" fill="#009BDD"/>
<path d="M878.866 330.5H208.272L231.366 290.5H855.772L878.866 330.5Z" fill="#009BDD"/>
<path d="M950.866 478.5H129.366L151.866 439.529H928.366L950.866 478.5Z" stroke="black"/>
<path d="M904.927 391L926.866 429H157.366L179.866 391H904.927Z" stroke="black"/>
<path d="M901.866 379H183.215L204.866 341.5H880.215L901.866 379Z" stroke="black"/>
<path d="M878.866 330.5H208.272L231.366 290.5H855.772L878.866 330.5Z" stroke="black"/>
<path d="M397.866 266.5H248.366L390.366 0.5H590.366L549.366 266.5H429.866L441.866 187.5L397.866 266.5Z" fill="#009BDD"/>
<path d="M902.366 0.5H614.866L572.366 266.5H691.366L706.866 183.5H902.366V0.5Z" fill="#009BDD"/>
<path d="M397.866 266.5H248.366L390.366 0.5H590.366L549.366 266.5H429.866L441.866 187.5L397.866 266.5Z" stroke="black"/>
<path d="M902.366 0.5H614.866L572.366 266.5H691.366L706.866 183.5H902.366V0.5Z" stroke="black"/>
</svg>
